# xmcd
#
# Track frame offsets: 
#        150
#        13322
#        14640
#        27130
#        29390
#        42200
#        44680
#        61795
#        74067
#        86877
#        98827
#        117620
#        140345
#        156177
#        170725
#        186817
#
# Disc length: 2792 seconds
#
# Revision: 0
# Processed by: cddbd v1.5.2PL0 Copyright (c) Steve Scherf et al.
# Submitted via: ExactAudioCopy v0.99pb4
#
DISCID=e80ae610
DTITLE=Gerd Backert - Gerd Backert and seine Freunde
DYEAR=1995
DGENRE=Folk
TTITLE0=Wer kennt den Drejk
TTITLE1=Greenpeacewitzla
TTITLE2=Lieber 100 Kilo
TTITLE3=Tassenwitzla
TTITLE4=Des kanapee
TTITLE5=Orgasmuswitzla
TTITLE6=Des geht vorbei
TTITLE7=Oh Fußballclub
TTITLE8=Beim Nothelferstammtisch
TTITLE9=Eduard geh auf und fang die Muck
TTITLE10=Der Stafflstaaner Dialekt
TTITLE11=Lichtenfelser Korbstadtlied
TTITLE12=Korbmacher Blues
TTITLE13=Wir sen die schönst Leut in Franken
TTITLE14=Fränkischa Schlumperliedla
TTITLE15=Das Frankenlied
EXTD=
EXTT0=
EXTT1=
EXTT2=
EXTT3=
EXTT4=
EXTT5=
EXTT6=
EXTT7=
EXTT8=
EXTT9=
EXTT10=
EXTT11=
EXTT12=
EXTT13=
EXTT14=
EXTT15=
PLAYORDER=
